<?xml version="1.0" encoding="utf-8"?>
<svg width="23.994705px" height="32px" viewBox="0 0 23.994705 32" version="1.1" xmlns:xlink="http://www.w3.org/1999/xlink" xmlns="http://www.w3.org/2000/svg">
  <g id="Logo">
    <path d="M12.0571 21.3298L23.9943 21.3298L16.0216 14.2417L12.0571 21.3298L12.0571 21.3298L12.0571 21.3298Z" id="Vector" fill="#FF7FAC" fill-rule="evenodd" stroke="none" />
    <path d="M11.9916 10.6704L7.9834 14.2308L11.9698 21.3298L12.0571 21.3298L16.0216 14.2417L11.9916 10.6704L11.9916 10.6704L11.9916 10.6704Z" id="Vector#1" fill="#FF4C80" fill-rule="evenodd" stroke="none" />
    <path d="M7.98363 14.2305L0 21.3294L11.97 21.3294L7.98363 14.2305L7.98363 14.2305L7.98363 14.2305Z" id="Vector#2" fill="#FF745B" fill-rule="evenodd" stroke="none" />
    <path d="M12.4702 22.3296L12.9702 21.3296L11.9702 21.3296L12.4702 22.3296L12.4702 22.3296L12.4702 22.3296Z" id="Vector#3" fill="#FF9D51" fill-rule="evenodd" stroke="none" />
    <path d="M11.9919 32.0001L15.9455 28.4834L8.08203 28.5162L11.9919 32.0001L11.9919 32.0001L11.9919 32.0001Z" id="Vector#4" fill="#FF745B" fill-rule="evenodd" stroke="none" />
    <path d="M8.04932 28.4944L8.08208 28.5162L15.9456 28.4834L15.9783 28.4615L12.0138 21.4062L8.04932 28.4944L8.04932 28.4944L8.04932 28.4944Z" id="Vector#5" fill="#FFB955" fill-rule="evenodd" stroke="none" />
    <path d="M12.0574 21.3296L12.0137 21.406L15.9782 28.4613L23.9946 21.3296L12.0574 21.3296L12.0574 21.3296L12.0574 21.3296Z" id="Vector#6" fill="#FF9B92" fill-rule="evenodd" stroke="none" />
    <path d="M11.97 21.3296L0 21.3296L8.04916 28.4941L12.0137 21.406L11.97 21.3296L11.97 21.3296L11.97 21.3296Z" id="Vector#7" fill="#FF9D51" fill-rule="evenodd" stroke="none" />
    <path d="M0 0L0 21.3297L7.98363 14.2307L0 0L0 0L0 0Z" id="Vector#8" fill="#FF9D51" fill-rule="evenodd" stroke="none" />
    <path d="M11.9918 10.6703L0 0L7.98363 14.2307L11.9918 10.6703L11.9918 10.6703L11.9918 10.6703Z" id="Vector#9" fill="#FFB955" fill-rule="evenodd" stroke="none" />
    <path d="M23.9944 0L11.9917 10.6703L16.0217 14.2417L23.9944 0L23.9944 0L23.9944 0Z" id="Vector#10" fill="#E3398B" fill-rule="evenodd" stroke="none" />
    <path d="M23.9947 21.3297L23.9947 0L16.022 14.2417L23.9947 21.3297L23.9947 21.3297L23.9947 21.3297Z" id="Vector#11" fill="#F766B7" fill-rule="evenodd" stroke="none" />
  </g>
</svg>